HIERARCHY
ROOT Hips
{
	OFFSET	0.00	0.00	0.00
	CHANNELS 6 Xposition Yposition Zposition Zrotation Xrotation Yrotation
	JOINT LeftUpLeg
	{
		OFFSET	 0.126116	-0.065224	 0.014019
		CHANNELS 3 Zrotation Xrotation Yrotation
		JOINT LeftLeg
		{
			OFFSET	 0.000000	 0.569914	 0.000000
			CHANNELS 3 Zrotation Xrotation Yrotation
			JOINT LeftFoot
			{
				OFFSET	 0.000000	 0.544423	 0.000000
				CHANNELS 3 Zrotation Xrotation Yrotation
				JOINT LeftToeBase
				{
					OFFSET	 0.000000	 0.207117	 0.000000
					CHANNELS 3 Zrotation Xrotation Yrotation
					End Site
					{
						OFFSET	 0.000000	 0.207117	 0.000000
					}
				}
			}
		}
	}
	JOINT RightUpLeg
	{
		OFFSET	-0.124023	-0.065224	 0.008373
		CHANNELS 3 Zrotation Xrotation Yrotation
		JOINT RightLeg
		{
			OFFSET	 0.000000	 0.570047	 0.000000
			CHANNELS 3 Zrotation Xrotation Yrotation
			JOINT RightFoot
			{
				OFFSET	 0.000000	 0.544354	 0.000000
				CHANNELS 3 Zrotation Xrotation Yrotation
				JOINT RightToeBase
				{
					OFFSET	 0.000000	 0.207540	 0.000000
					CHANNELS 3 Zrotation Xrotation Yrotation
					End Site
					{
						OFFSET	 0.000000	 0.207540	 0.000000
					}
				}
			}
		}
	}
	JOINT Spine
	{
		OFFSET	 0.000184	 0.117403	 0.007763
		CHANNELS 3 Zrotation Xrotation Yrotation
		JOINT Spine1
		{
			OFFSET	 0.000000	 0.137269	 0.000000
			CHANNELS 3 Zrotation Xrotation Yrotation
			JOINT Spine2
			{
				OFFSET	 0.000000	 0.156879	 0.000000
				CHANNELS 3 Zrotation Xrotation Yrotation
				JOINT LeftShoulder
				{
					OFFSET	 0.080501	 0.160143	 0.002496
					CHANNELS 3 Zrotation Xrotation Yrotation
					JOINT LeftArm
					{
						OFFSET	 0.000000	 0.164363	 0.000000
						CHANNELS 3 Zrotation Xrotation Yrotation
						JOINT LeftForeArm
						{
							OFFSET	 0.000000	 0.364576	 0.000000
							CHANNELS 3 Zrotation Xrotation Yrotation
							JOINT LeftHand
							{
								OFFSET	 0.000000	 0.360812	 0.000000
								CHANNELS 3 Zrotation Xrotation Yrotation
								JOINT LeftHandIndex1
								{
									OFFSET	 0.000000	 0.086006	 0.000000
									CHANNELS 3 Zrotation Xrotation Yrotation
									JOINT LeftHandIndex2
									{
										OFFSET	 0.000000	 0.047237	 0.000000
										CHANNELS 3 Zrotation Xrotation Yrotation
										JOINT LeftHandIndex3
										{
											OFFSET	-0.004284	 0.038165	 0.000551
											CHANNELS 3 Zrotation Xrotation Yrotation
											End Site
											{
												OFFSET	-0.004284	 0.038165	 0.000551
											}
										}
									}
								}
							}
						}
					}
				}
				JOINT Neck
				{
					OFFSET	 0.000000	 0.176489	 0.000000
					CHANNELS 3 Zrotation Xrotation Yrotation
					JOINT Head
					{
						OFFSET	 0.000000	 0.077941	 0.001747
						CHANNELS 3 Zrotation Xrotation Yrotation
						End Site
						{
							OFFSET	 0.000000	 0.077941	 0.001747
						}
					}
				}
				JOINT RightShoulder
				{
					OFFSET	-0.080363	 0.159706	-0.000306
					CHANNELS 3 Zrotation Xrotation Yrotation
					JOINT RightArm
					{
						OFFSET	 0.000000	 0.164196	 0.000000
						CHANNELS 3 Zrotation Xrotation Yrotation
						JOINT RightForeArm
						{
							OFFSET	 0.000000	 0.365611	 0.000000
							CHANNELS 3 Zrotation Xrotation Yrotation
							JOINT RightHand
							{
								OFFSET	 0.000000	 0.360648	 0.000000
								CHANNELS 3 Zrotation Xrotation Yrotation
								JOINT RightHandIndex1
								{
									OFFSET	 0.000000	 0.069977	 0.000000
									CHANNELS 3 Zrotation Xrotation Yrotation
									JOINT RightHandIndex2
									{
										OFFSET	 0.000000	 0.052305	 0.000000
										CHANNELS 3 Zrotation Xrotation Yrotation
										JOINT RightHandIndex3
										{
											OFFSET	 0.009002	 0.042196	 0.000782
											CHANNELS 3 Zrotation Xrotation Yrotation
											End Site
											{
												OFFSET	 0.009002	 0.042196	 0.000782
											}
										}
									}
								}
							}
						}
					}
				}
			}
		}
	}
}
MOTION
Frames:    13
Frame Time: 0.03333334
 0.001406	 1.271279	 0.063397	 0.015595	-0.011746	 179.999900	 177.396700	 1.294606	 17.802120	 2.653538	-12.327320	 0.029167	-2.149578	 71.778210	 4.119135	 1.292262	 28.425850	-2.713146	-177.316100	 1.686817	-17.812690	-2.649390	-12.671350	-0.027968	 2.299109	 71.741370	-4.198745	-1.288183	 28.361890	 2.710176	-0.089620	 2.704451	-0.000518	 0.008088	 3.690311	-0.000993	-0.003826	-4.717857	-0.004159	-101.478000	 1.740658	 90.353370	-2.143198	 64.073880	 4.968691	 6.354714	 13.040360	 0.728081	 9.780383	-5.067533	 0.609738	-6.580301	 5.266122	 0.000000	 0.000000	 0.000000	 0.000000	 0.000000	 0.000000	 0.000000	 0.089846	-3.783161	 0.005928	 0.000015	 1.263154	-0.001370	 101.796200	-0.213313	-89.955440	-1.113340	 63.691620	-7.348023	-8.808727	 13.221530	 2.286736	-13.890250	-5.902554	 0.876856	 15.208500	 5.323790	 0.000000	 0.000000	 0.000000	 0.000000	 0.000000	 0.000000	 0.000000
 0.001406	 1.271279	 0.063396	 0.015576	-0.011744	 179.999900	 177.396600	 1.294651	 17.802020	 2.653574	-12.327480	 0.029172	-2.149879	 71.778340	 4.119460	 1.292262	 28.425850	-2.713146	-177.316100	 1.686856	-17.812560	-2.649426	-12.671480	-0.027980	 2.299462	 71.741450	-4.199121	-1.288183	 28.361890	 2.710176	-0.089620	 2.704451	-0.000518	 0.008090	 3.689972	-0.000993	-0.003821	-4.717644	-0.004162	-101.478000	 1.740669	 90.353390	-2.373983	 63.538640	 5.091129	 6.537923	 13.401400	 0.686158	 9.659661	-5.417378	 0.649730	-6.580301	 5.266122	 0.000000	 0.000000	 0.000000	 0.000000	 0.000000	 0.000000	 0.000000	 0.089846	-3.783161	 0.005928	 0.000015	 1.263154	-0.001370	 101.796200	-0.213317	-89.955460	 2.699218	 51.483920	-9.842044	-26.505870	 34.399450	 8.856551	-10.850970	-16.388020	-8.957074	 15.208500	 5.323790	 0.000000	 0.000000	 0.000000	 0.000000	 0.000000	 0.000000	 0.000000
 0.001406	 1.271279	 0.063397	 0.015591	-0.011742	 179.999900	 177.396700	 1.294605	 17.802010	 2.653522	-12.327260	 0.029166	-2.149876	 71.778150	 4.119463	 1.292262	 28.425850	-2.713146	-177.316100	 1.686761	-17.812670	-2.649368	-12.671230	-0.027964	 2.299130	 71.741310	-4.198776	-1.288183	 28.361890	 2.710176	-0.089620	 2.704450	-0.000518	 0.008106	 3.690325	-0.000994	-0.003833	-4.717894	-0.004105	-101.478000	 1.740665	 90.353370	-3.677224	 58.580550	 5.640274	 7.476991	 15.232250	 0.453915	 9.287457	-5.564798	 0.465220	-6.580301	 5.266122	 0.000000	 0.000000	 0.000000	 0.000000	 0.000000	 0.000000	 0.000000	 0.089846	-3.783161	 0.005928	 0.000015	 1.263154	-0.001370	 101.796200	-0.213311	-89.955450	-38.889650	 12.187890	 50.422160	-77.724310	 56.294670	 42.954350	 27.431720	-22.901610	-35.447370	 15.208500	 5.323790	 0.000000	 0.000000	 0.000000	 0.000000	 0.000000	 0.000000	 0.000000
 0.001406	 1.271279	 0.063397	 0.015593	-0.011744	 179.999900	 177.396700	 1.294609	 17.802030	 2.653549	-12.327370	 0.029164	-2.149853	 71.778280	 4.119437	 1.292262	 28.425850	-2.713146	-177.316100	 1.686815	-17.812680	-2.649390	-12.671340	-0.027968	 2.299123	 71.741350	-4.198762	-1.288183	 28.361890	 2.710176	-0.089620	 2.704450	-0.000518	 0.008086	 3.690146	-0.000993	-0.003820	-4.717752	-0.004157	-101.478000	 1.740670	 90.353390	-3.741515	 57.932460	 5.588810	 7.452896	 15.185680	 0.460226	 9.302295	-5.445658	 0.409825	-6.580301	 5.266122	 0.000000	 0.000000	 0.000000	 0.000000	 0.000000	 0.000000	 0.000000	 0.089846	-3.783161	 0.005928	 0.000015	 1.263154	-0.001370	 101.796200	-0.213312	-89.955450	-50.407470	 5.778466	 58.532930	-54.500610	 51.318650	 23.417160	 24.635590	-16.640810	-44.493770	 15.208500	 5.323790	 0.000000	 0.000000	 0.000000	 0.000000	 0.000000	 0.000000	 0.000000
 0.001406	 1.271279	 0.063397	 0.015582	-0.011746	 179.999900	 177.396700	 1.294559	 17.802100	 2.653514	-12.327210	 0.029160	-2.149614	 71.778180	 4.119191	 1.292262	 28.425850	-2.713146	-177.316100	 1.686756	-17.812690	-2.649369	-12.671230	-0.027966	 2.299088	 71.741310	-4.198730	-1.288183	 28.361890	 2.710176	-0.089620	 2.704450	-0.000518	 0.008064	 3.690321	-0.000993	-0.003809	-4.717893	-0.004102	-101.478000	 1.740668	 90.353380	-3.772011	 57.414240	 5.506075	 7.391247	 15.066490	 0.476302	 9.312273	-5.423569	 0.374332	-6.580301	 5.266122	 0.000000	 0.000000	 0.000000	 0.000000	 0.000000	 0.000000	 0.000000	 0.089846	-3.783161	 0.005928	 0.000015	 1.263154	-0.001370	 101.796200	-0.213316	-89.955450	-62.687760	-0.437128	 62.939450	-32.108070	 39.195870	 6.598584	 16.855800	-9.850059	-55.723030	 15.208500	 5.323790	 0.000000	 0.000000	 0.000000	 0.000000	 0.000000	 0.000000	 0.000000
 0.001406	 1.271279	 0.063397	 0.015593	-0.011744	 179.999900	 177.396700	 1.294603	 17.802120	 2.653539	-12.327320	 0.029167	-2.149575	 71.778210	 4.119131	 1.292262	 28.425850	-2.713146	-177.316100	 1.686815	-17.812680	-2.649390	-12.671340	-0.027968	 2.299123	 71.741350	-4.198762	-1.288183	 28.361890	 2.710176	-0.089620	 2.704450	-0.000518	 0.008086	 3.690146	-0.000993	-0.003820	-4.717752	-0.004157	-101.478000	 1.740670	 90.353390	-3.785610	 57.095490	 5.413855	 7.329793	 14.947580	 0.492252	 9.288262	-5.613107	 0.383690	-6.580301	 5.266122	 0.000000	 0.000000	 0.000000	 0.000000	 0.000000	 0.000000	 0.000000	 0.089846	-3.783161	 0.005928	 0.000015	 1.263154	-0.001370	 101.796200	-0.213312	-89.955450	-74.898940	-5.138829	 64.068760	-15.412730	 22.183040	-2.789267	 5.212503	-3.096162	-66.553600	 15.208500	 5.323790	 0.000000	 0.000000	 0.000000	 0.000000	 0.000000	 0.000000	 0.000000
 0.001406	 1.271279	 0.063397	 0.015595	-0.011746	 179.999900	 177.396700	 1.294601	 17.801940	 2.653532	-12.327280	 0.029171	-2.150081	 71.778220	 4.119688	 1.292262	 28.425850	-2.713146	-177.316100	 1.686805	-17.812590	-2.649399	-12.671380	-0.027974	 2.299369	 71.741400	-4.199032	-1.288183	 28.361890	 2.710176	-0.089620	 2.704451	-0.000518	 0.008088	 3.690143	-0.000993	-0.003820	-4.717752	-0.004156	-101.478000	 1.740663	 90.353380	-3.798270	 57.012500	 5.351792	 7.309925	 14.909000	 0.497344	 9.228359	-5.971909	 0.435093	-6.580301	 5.266122	 0.000000	 0.000000	 0.000000	 0.000000	 0.000000	 0.000000	 0.000000	 0.089846	-3.783161	 0.005928	 0.000015	 1.263154	-0.001370	 101.796200	-0.213314	-89.955450	-81.145080	-6.758229	 63.908700	-8.230202	 12.386960	-5.487589	-4.218344	-0.518547	-73.590110	 15.208500	 5.323790	 0.000000	 0.000000	 0.000000	 0.000000	 0.000000	 0.000000	 0.000000
 0.001406	 1.271279	 0.063397	 0.015582	-0.011746	 179.999900	 177.396700	 1.294559	 17.802100	 2.653514	-12.327210	 0.029160	-2.149614	 71.778180	 4.119191	 1.292262	 28.425850	-2.713146	-177.316100	 1.686811	-17.812540	-2.649388	-12.671330	-0.027970	 2.299536	 71.741350	-4.199212	-1.288183	 28.361890	 2.710176	-0.089620	 2.704450	-0.000518	 0.008042	 3.690320	-0.000992	-0.003800	-4.717894	-0.004096	-101.478000	 1.740659	 90.353380	-3.780920	 57.194290	 5.449754	 7.351279	 14.989110	 0.486628	 9.303712	-5.505761	 0.373445	-6.580301	 5.266122	 0.000000	 0.000000	 0.000000	 0.000000	 0.000000	 0.000000	 0.000000	 0.089846	-3.783161	 0.005928	 0.000015	 1.263154	-0.001370	 101.796200	-0.213312	-89.955450	-70.937510	-3.630299	 63.856830	-20.281830	 28.004770	-0.532781	 9.466548	-5.229605	-63.409290	 15.208500	 5.323790	 0.000000	 0.000000	 0.000000	 0.000000	 0.000000	 0.000000	 0.000000
 0.001406	 1.271279	 0.063397	 0.015582	-0.011746	 179.999900	 177.396700	 1.294605	 17.802120	 2.653538	-12.327320	 0.029167	-2.149575	 71.778210	 4.119133	 1.292262	 28.425850	-2.713146	-177.316100	 1.686805	-17.812590	-2.649399	-12.671380	-0.027975	 2.299366	 71.741400	-4.199029	-1.288183	 28.361890	 2.710176	-0.089620	 2.704450	-0.000518	 0.008064	 3.690148	-0.000993	-0.003812	-4.717754	-0.004160	-101.478000	 1.740667	 90.353390	-3.755878	 57.727040	 5.561824	 7.433548	 15.148320	 0.465340	 9.307822	-5.420833	 0.393475	-6.580301	 5.266122	 0.000000	 0.000000	 0.000000	 0.000000	 0.000000	 0.000000	 0.000000	 0.089846	-3.783161	 0.005928	 0.000015	 1.263154	-0.001370	 101.796200	-0.213310	-89.955440	-55.706730	 3.345500	 60.577080	-43.829460	 46.734760	 14.882750	 21.431300	-13.801150	-50.397710	 15.208500	 5.323790	 0.000000	 0.000000	 0.000000	 0.000000	 0.000000	 0.000000	 0.000000
 0.001406	 1.271279	 0.063397	 0.015593	-0.011744	 179.999900	 177.396700	 1.294603	 17.802120	 2.653539	-12.327320	 0.029167	-2.149575	 71.778210	 4.119131	 1.292262	 28.425850	-2.713146	-177.316100	 1.686815	-17.812680	-2.649390	-12.671340	-0.027968	 2.299123	 71.741350	-4.198762	-1.288183	 28.361890	 2.710176	-0.089620	 2.704450	-0.000518	 0.008086	 3.690146	-0.000993	-0.003820	-4.717752	-0.004157	-101.478000	 1.740670	 90.353390	-3.686990	 58.499490	 5.636018	 7.476739	 15.231850	 0.453968	 9.288800	-5.548823	 0.458587	-6.580301	 5.266122	 0.000000	 0.000000	 0.000000	 0.000000	 0.000000	 0.000000	 0.000000	 0.089846	-3.783161	 0.005928	 0.000015	 1.263154	-0.001370	 101.796200	-0.213312	-89.955450	-41.423490	 11.347030	 51.867340	-71.840230	 55.551080	 37.694520	 26.404350	-21.682600	-39.221430	 15.208500	 5.323790	 0.000000	 0.000000	 0.000000	 0.000000	 0.000000	 0.000000	 0.000000
 0.001406	 1.271279	 0.063397	 0.015595	-0.011746	 179.999900	 177.396700	 1.294606	 17.802120	 2.653538	-12.327320	 0.029167	-2.149578	 71.778210	 4.119135	 1.292262	 28.425850	-2.713146	-177.316100	 1.686813	-17.812690	-2.649390	-12.671350	-0.027969	 2.299087	 71.741330	-4.198717	-1.288183	 28.361890	 2.710176	-0.089620	 2.704451	-0.000518	 0.008088	 3.690143	-0.000993	-0.003820	-4.717752	-0.004156	-101.478000	 1.740663	 90.353380	-3.556697	 59.406500	 5.650678	 7.441735	 15.164110	 0.463218	 9.286043	-5.715917	 0.532233	-6.580301	 5.266122	 0.000000	 0.000000	 0.000000	 0.000000	 0.000000	 0.000000	 0.000000	 0.089846	-3.783161	 0.005928	 0.000015	 1.263154	-0.001370	 101.796200	-0.213314	-89.955450	-28.437300	 18.681150	 38.335700	-90.581950	 56.902310	 54.035670	 23.744260	-28.307290	-32.851840	 15.208500	 5.323790	 0.000000	 0.000000	 0.000000	 0.000000	 0.000000	 0.000000	 0.000000
 0.001406	 1.271279	 0.063397	 0.015580	-0.011744	 179.999900	 177.396700	 1.294557	 17.802000	 2.653522	-12.327250	 0.029164	-2.149883	 71.778220	 4.119490	 1.292262	 28.425850	-2.713146	-177.316100	 1.686800	-17.812580	-2.649402	-12.671370	-0.027980	 2.299395	 71.741370	-4.199055	-1.288183	 28.361890	 2.710176	-0.089620	 2.704450	-0.000518	 0.008084	 3.690150	-0.000993	-0.003826	-4.717790	-0.004211	-101.478000	 1.740673	 90.353390	-3.394655	 60.239560	 5.612774	 7.345961	 14.978840	 0.488078	 9.309071	-5.820914	 0.588235	-6.580301	 5.266122	 0.000000	 0.000000	 0.000000	 0.000000	 0.000000	 0.000000	 0.000000	 0.089846	-3.783161	 0.005928	 0.000015	 1.263154	-0.001370	 101.796200	-0.213316	-89.955450	-18.804620	 24.118110	 25.045200	-93.311770	 56.859860	 56.912210	 16.505540	-31.717280	-31.042580	 15.208500	 5.323790	 0.000000	 0.000000	 0.000000	 0.000000	 0.000000	 0.000000	 0.000000
 0.001406	 1.271279	 0.063397	 0.015593	-0.011744	 179.999900	 177.396700	 1.294603	 17.802120	 2.653539	-12.327320	 0.029167	-2.149575	 71.778210	 4.119131	 1.292262	 28.425850	-2.713146	-177.316100	 1.686815	-17.812680	-2.649390	-12.671340	-0.027968	 2.299123	 71.741350	-4.198762	-1.288183	 28.361890	 2.710176	-0.089620	 2.704450	-0.000518	 0.008086	 3.690146	-0.000993	-0.003820	-4.717752	-0.004157	-101.478000	 1.740670	 90.353390	-3.172328	 61.155040	 5.523558	 7.183797	 14.664260	 0.529545	 9.362982	-5.860693	 0.633987	-6.580301	 5.266122	 0.000000	 0.000000	 0.000000	 0.000000	 0.000000	 0.000000	 0.000000	 0.089846	-3.783161	 0.005928	 0.000015	 1.263154	-0.001370	 101.796200	-0.213312	-89.955450	-10.623030	 29.741480	 11.922560	-83.435300	 56.730920	 49.263660	 6.873191	-31.855720	-30.050410	 15.208500	 5.323790	 0.000000	 0.000000	 0.000000	 0.000000	 0.000000	 0.000000	 0.000000
